{
    "asset" : {
        "generator" : "Khronos glTF Blender I/O v1.3.48",
        "version" : "2.0"
    },
    "scene" : 0,
    "scenes" : [
        {
            "name" : "Scene",
            "nodes" : [
                18
            ]
        }
    ],
    "nodes" : [
        {
            "mesh" : 0,
            "name" : "defaultMaterial"
        },
        {
            "children" : [
                0
            ],
            "name" : "g"
        },
        {
            "mesh" : 1,
            "name" : "defaultMaterial.001"
        },
        {
            "children" : [
                2
            ],
            "name" : "g.001"
        },
        {
            "mesh" : 2,
            "name" : "defaultMaterial.002"
        },
        {
            "children" : [
                4
            ],
            "name" : "g.002"
        },
        {
            "mesh" : 3,
            "name" : "defaultMaterial.003"
        },
        {
            "children" : [
                6
            ],
            "name" : "g.003"
        },
        {
            "mesh" : 4,
            "name" : "defaultMaterial.004"
        },
        {
            "children" : [
                8
            ],
            "name" : "g.004"
        },
        {
            "mesh" : 5,
            "name" : "defaultMaterial.005"
        },
        {
            "children" : [
                10
            ],
            "name" : "g.005"
        },
        {
            "mesh" : 6,
            "name" : "defaultMaterial.006"
        },
        {
            "children" : [
                12
            ],
            "name" : "g.006"
        },
        {
            "mesh" : 7,
            "name" : "defaultMaterial.007"
        },
        {
            "children" : [
                14
            ],
            "name" : "g.007"
        },
        {
            "children" : [
                1,
                3,
                5,
                7,
                9,
                11,
                13,
                15
            ],
            "name" : "Collada visual scene group",
            "rotation" : [
                0.7071068286895752,
                0,
                0,
                0.7071068286895752
            ]
        },
        {
            "children" : [
                16
            ],
            "name" : "RootNode (model correction matrix)"
        },
        {
            "children" : [
                17
            ],
            "name" : "RootNode (gltf orientation matrix)",
            "rotation" : [
                -0.7071068286895752,
                0,
                0,
                0.7071068286895752
            ]
        }
    ],
    "materials" : [
        {
            "alphaMode" : "BLEND",
            "emissiveFactor" : [
                0,
                0,
                0
            ],
            "name" : "rsMaterial3SG.001",
            "normalTexture" : {
                "index" : 0,
                "texCoord" : 0
            },
            "pbrMetallicRoughness" : {
                "baseColorTexture" : {
                    "index" : 1,
                    "texCoord" : 0
                },
                "metallicRoughnessTexture" : {
                    "index" : 2,
                    "texCoord" : 0
                }
            }
        }
    ],
    "meshes" : [
        {
            "name" : "defaultMaterial",
            "primitives" : [
                {
                    "attributes" : {
                        "POSITION" : 0,
                        "NORMAL" : 1,
                        "TEXCOORD_0" : 2
                    },
                    "indices" : 3,
                    "material" : 0
                }
            ]
        },
        {
            "name" : "defaultMaterial.001",
            "primitives" : [
                {
                    "attributes" : {
                        "POSITION" : 4,
                        "NORMAL" : 5,
                        "TEXCOORD_0" : 6
                    },
                    "indices" : 7,
                    "material" : 0
                }
            ]
        },
        {
            "name" : "defaultMaterial.002",
            "primitives" : [
                {
                    "attributes" : {
                        "POSITION" : 8,
                        "NORMAL" : 9,
                        "TEXCOORD_0" : 10
                    },
                    "indices" : 11,
                    "material" : 0
                }
            ]
        },
        {
            "name" : "defaultMaterial.003",
            "primitives" : [
                {
                    "attributes" : {
                        "POSITION" : 12,
                        "NORMAL" : 13,
                        "TEXCOORD_0" : 14
                    },
                    "indices" : 15,
                    "material" : 0
                }
            ]
        },
        {
            "name" : "defaultMaterial.004",
            "primitives" : [
                {
                    "attributes" : {
                        "POSITION" : 16,
                        "NORMAL" : 17,
                        "TEXCOORD_0" : 18
                    },
                    "indices" : 3,
                    "material" : 0
                }
            ]
        },
        {
            "name" : "defaultMaterial.005",
            "primitives" : [
                {
                    "attributes" : {
                        "POSITION" : 19,
                        "NORMAL" : 20,
                        "TEXCOORD_0" : 21
                    },
                    "indices" : 22,
                    "material" : 0
                }
            ]
        },
        {
            "name" : "defaultMaterial.006",
            "primitives" : [
                {
                    "attributes" : {
                        "POSITION" : 23,
                        "NORMAL" : 24,
                        "TEXCOORD_0" : 25
                    },
                    "indices" : 26,
                    "material" : 0
                }
            ]
        },
        {
            "name" : "defaultMaterial.007",
            "primitives" : [
                {
                    "attributes" : {
                        "POSITION" : 27,
                        "NORMAL" : 28,
                        "TEXCOORD_0" : 29
                    },
                    "indices" : 30,
                    "material" : 0
                }
            ]
        }
    ],
    "textures" : [
        {
            "source" : 0
        },
        {
            "source" : 1
        },
        {
            "source" : 2
        }
    ],
    "images" : [
        {
            "mimeType" : "image/png",
            "name" : "rsMaterial3SG_normal",
            "uri" : "rsMaterial3SG_normal.png"
        },
        {
            "mimeType" : "image/png",
            "name" : "rsMaterial3SG_baseColor-ss1",
            "uri" : "rsMaterial3SG_baseColor-ss1.png"
        },
        {
            "mimeType" : "image/png",
            "name" : "rsMaterial3SG_metallicRoughness",
            "uri" : "rsMaterial3SG_metallicRoughness.png"
        }
    ],
    "accessors" : [
        {
            "bufferView" : 0,
            "componentType" : 5126,
            "count" : 327,
            "max" : [
                0.8243250250816345,
                0.251118004322052,
                0.8678159713745117
            ],
            "min" : [
                0.670648992061615,
                0.09744150191545486,
                0.6328679919242859
            ],
            "type" : "VEC3"
        },
        {
            "bufferView" : 1,
            "componentType" : 5126,
            "count" : 327,
            "type" : "VEC3"
        },
        {
            "bufferView" : 2,
            "componentType" : 5126,
            "count" : 327,
            "type" : "VEC2"
        },
        {
            "bufferView" : 3,
            "componentType" : 5123,
            "count" : 1458,
            "type" : "SCALAR"
        },
        {
            "bufferView" : 4,
            "componentType" : 5126,
            "count" : 100,
            "max" : [
                0.7759180068969727,
                -0.5246059894561768,
                0.7755569815635681
            ],
            "min" : [
                0.6842449903488159,
                -0.5526689887046814,
                0.7471609711647034
            ],
            "type" : "VEC3"
        },
        {
            "bufferView" : 5,
            "componentType" : 5126,
            "count" : 100,
            "type" : "VEC3"
        },
        {
            "bufferView" : 6,
            "componentType" : 5126,
            "count" : 100,
            "type" : "VEC2"
        },
        {
            "bufferView" : 7,
            "componentType" : 5123,
            "count" : 270,
            "type" : "SCALAR"
        },
        {
            "bufferView" : 8,
            "componentType" : 5126,
            "count" : 220,
            "max" : [
                0.8971620202064514,
                -0.5028899908065796,
                0.6682479977607727
            ],
            "min" : [
                -0.8977580070495605,
                -0.7519220113754272,
                -0.05849890038371086
            ],
            "type" : "VEC3"
        },
        {
            "bufferView" : 9,
            "componentType" : 5126,
            "count" : 220,
            "type" : "VEC3"
        },
        {
            "bufferView" : 10,
            "componentType" : 5126,
            "count" : 220,
            "type" : "VEC2"
        },
        {
            "bufferView" : 11,
            "componentType" : 5123,
            "count" : 474,
            "type" : "SCALAR"
        },
        {
            "bufferView" : 12,
            "componentType" : 5126,
            "count" : 537,
            "max" : [
                0.5451400279998779,
                0.6930660009384155,
                0.7697790265083313
            ],
            "min" : [
                -0.9451479911804199,
                -0.4825170040130615,
                0.627062976360321
            ],
            "type" : "VEC3"
        },
        {
            "bufferView" : 13,
            "componentType" : 5126,
            "count" : 537,
            "type" : "VEC3"
        },
        {
            "bufferView" : 14,
            "componentType" : 5126,
            "count" : 537,
            "type" : "VEC2"
        },
        {
            "bufferView" : 15,
            "componentType" : 5123,
            "count" : 2544,
            "type" : "SCALAR"
        },
        {
            "bufferView" : 16,
            "componentType" : 5126,
            "count" : 327,
            "max" : [
                0.8251780271530151,
                0.5468739867210388,
                0.8678159713745117
            ],
            "min" : [
                0.6697959899902344,
                0.39149200916290283,
                0.6328679919242859
            ],
            "type" : "VEC3"
        },
        {
            "bufferView" : 17,
            "componentType" : 5126,
            "count" : 327,
            "type" : "VEC3"
        },
        {
            "bufferView" : 18,
            "componentType" : 5126,
            "count" : 327,
            "type" : "VEC2"
        },
        {
            "bufferView" : 19,
            "componentType" : 5126,
            "count" : 376,
            "max" : [
                0.9512770175933838,
                0.6998429894447327,
                0.7562230229377747
            ],
            "min" : [
                0.5429970026016235,
                -0.49185699224472046,
                0.7168459892272949
            ],
            "type" : "VEC3"
        },
        {
            "bufferView" : 20,
            "componentType" : 5126,
            "count" : 376,
            "type" : "VEC3"
        },
        {
            "bufferView" : 21,
            "componentType" : 5126,
            "count" : 376,
            "type" : "VEC2"
        },
        {
            "bufferView" : 22,
            "componentType" : 5123,
            "count" : 1086,
            "type" : "SCALAR"
        },
        {
            "bufferView" : 23,
            "componentType" : 5126,
            "count" : 208,
            "max" : [
                0.9920480251312256,
                0.740880012512207,
                0.7817389965057373
            ],
            "min" : [
                -0.9918349981307983,
                -0.5999749898910522,
                0.6668300032615662
            ],
            "type" : "VEC3"
        },
        {
            "bufferView" : 24,
            "componentType" : 5126,
            "count" : 208,
            "type" : "VEC3"
        },
        {
            "bufferView" : 25,
            "componentType" : 5126,
            "count" : 208,
            "type" : "VEC2"
        },
        {
            "bufferView" : 26,
            "componentType" : 5123,
            "count" : 924,
            "type" : "SCALAR"
        },
        {
            "bufferView" : 27,
            "componentType" : 5126,
            "count" : 725,
            "max" : [
                1,
                0.7519220113754272,
                0.7054849863052368
            ],
            "min" : [
                -1,
                -0.609080970287323,
                -0.8678159713745117
            ],
            "type" : "VEC3"
        },
        {
            "bufferView" : 28,
            "componentType" : 5126,
            "count" : 725,
            "type" : "VEC3"
        },
        {
            "bufferView" : 29,
            "componentType" : 5126,
            "count" : 725,
            "type" : "VEC2"
        },
        {
            "bufferView" : 30,
            "componentType" : 5123,
            "count" : 2610,
            "type" : "SCALAR"
        }
    ],
    "bufferViews" : [
        {
            "buffer" : 0,
            "byteLength" : 3924,
            "byteOffset" : 0
        },
        {
            "buffer" : 0,
            "byteLength" : 3924,
            "byteOffset" : 3924
        },
        {
            "buffer" : 0,
            "byteLength" : 2616,
            "byteOffset" : 7848
        },
        {
            "buffer" : 0,
            "byteLength" : 2916,
            "byteOffset" : 10464
        },
        {
            "buffer" : 0,
            "byteLength" : 1200,
            "byteOffset" : 13380
        },
        {
            "buffer" : 0,
            "byteLength" : 1200,
            "byteOffset" : 14580
        },
        {
            "buffer" : 0,
            "byteLength" : 800,
            "byteOffset" : 15780
        },
        {
            "buffer" : 0,
            "byteLength" : 540,
            "byteOffset" : 16580
        },
        {
            "buffer" : 0,
            "byteLength" : 2640,
            "byteOffset" : 17120
        },
        {
            "buffer" : 0,
            "byteLength" : 2640,
            "byteOffset" : 19760
        },
        {
            "buffer" : 0,
            "byteLength" : 1760,
            "byteOffset" : 22400
        },
        {
            "buffer" : 0,
            "byteLength" : 948,
            "byteOffset" : 24160
        },
        {
            "buffer" : 0,
            "byteLength" : 6444,
            "byteOffset" : 25108
        },
        {
            "buffer" : 0,
            "byteLength" : 6444,
            "byteOffset" : 31552
        },
        {
            "buffer" : 0,
            "byteLength" : 4296,
            "byteOffset" : 37996
        },
        {
            "buffer" : 0,
            "byteLength" : 5088,
            "byteOffset" : 42292
        },
        {
            "buffer" : 0,
            "byteLength" : 3924,
            "byteOffset" : 47380
        },
        {
            "buffer" : 0,
            "byteLength" : 3924,
            "byteOffset" : 51304
        },
        {
            "buffer" : 0,
            "byteLength" : 2616,
            "byteOffset" : 55228
        },
        {
            "buffer" : 0,
            "byteLength" : 4512,
            "byteOffset" : 57844
        },
        {
            "buffer" : 0,
            "byteLength" : 4512,
            "byteOffset" : 62356
        },
        {
            "buffer" : 0,
            "byteLength" : 3008,
            "byteOffset" : 66868
        },
        {
            "buffer" : 0,
            "byteLength" : 2172,
            "byteOffset" : 69876
        },
        {
            "buffer" : 0,
            "byteLength" : 2496,
            "byteOffset" : 72048
        },
        {
            "buffer" : 0,
            "byteLength" : 2496,
            "byteOffset" : 74544
        },
        {
            "buffer" : 0,
            "byteLength" : 1664,
            "byteOffset" : 77040
        },
        {
            "buffer" : 0,
            "byteLength" : 1848,
            "byteOffset" : 78704
        },
        {
            "buffer" : 0,
            "byteLength" : 8700,
            "byteOffset" : 80552
        },
        {
            "buffer" : 0,
            "byteLength" : 8700,
            "byteOffset" : 89252
        },
        {
            "buffer" : 0,
            "byteLength" : 5800,
            "byteOffset" : 97952
        },
        {
            "buffer" : 0,
            "byteLength" : 5220,
            "byteOffset" : 103752
        }
    ],
    "buffers" : [
        {
            "byteLength" : 108972,
            "uri" : "233.bin"
        }
    ]
}
