{
  "accessors": [
    {
      "bufferView": 2,
      "componentType": 5126,
      "count": 327,
      "max": [
        0.82432502508163452,
        0.251118004322052,
        0.86781597137451172
      ],
      "min": [
        0.67064899206161499,
        0.097441501915454865,
        0.63286799192428589
      ],
      "type": "VEC3"
    },
    {
      "bufferView": 2,
      "byteOffset": 3924,
      "componentType": 5126,
      "count": 327,
      "max": [
        0.99998599290847778,
        0.99998587369918823,
        1
      ],
      "min": [
        -0.99998587369918823,
        -0.99998587369918823,
        0
      ],
      "type": "VEC3"
    },
    {
      "bufferView": 3,
      "componentType": 5126,
      "count": 327,
      "max": [
        0.99752867221832275,
        0.99923938512802124,
        0.99924516677856445,
        1
      ],
      "min": [
        -0.99114143848419189,
        -0.99349021911621094,
        -0.99925792217254639,
        1
      ],
      "type": "VEC4"
    },
    {
      "bufferView": 1,
      "componentType": 5126,
      "count": 327,
      "max": [
        0.34788799285888672,
        0.1359580010175705
      ],
      "min": [
        0.0019529999699443579,
        0.0019529999699443579
      ],
      "type": "VEC2"
    },
    {
      "bufferView": 0,
      "componentType": 5125,
      "count": 1458,
      "max": [
        326
      ],
      "min": [
        0
      ],
      "type": "SCALAR"
    },
    {
      "bufferView": 2,
      "byteOffset": 7848,
      "componentType": 5126,
      "count": 100,
      "max": [
        0.77591800689697266,
        -0.52460598945617676,
        0.77555698156356812
      ],
      "min": [
        0.68424499034881592,
        -0.5526689887046814,
        0.74716097116470337
      ],
      "type": "VEC3"
    },
    {
      "bufferView": 2,
      "byteOffset": 9048,
      "componentType": 5126,
      "count": 100,
      "max": [
        0.99851822853088379,
        0.99989789724349976,
        0.99845713376998901
      ],
      "min": [
        -0.99851822853088379,
        -0.99989789724349976,
        0
      ],
      "type": "VEC3"
    },
    {
      "bufferView": 3,
      "byteOffset": 5232,
      "componentType": 5126,
      "count": 100,
      "max": [
        0.39365366101264954,
        5.9522400988498703e-05,
        0.99999135732650757,
        1
      ],
      "min": [
        -0.36794301867485046,
        -0.99918055534362793,
        -0.99983698129653931,
        1
      ],
      "type": "VEC4"
    },
    {
      "bufferView": 1,
      "byteOffset": 2616,
      "componentType": 5126,
      "count": 100,
      "max": [
        0.018874000757932663,
        0.029735000804066658
      ],
      "min": [
        0.0019529999699443579,
        0.0019529999699443579
      ],
      "type": "VEC2"
    },
    {
      "bufferView": 0,
      "byteOffset": 5832,
      "componentType": 5125,
      "count": 270,
      "max": [
        99
      ],
      "min": [
        0
      ],
      "type": "SCALAR"
    },
    {
      "bufferView": 2,
      "byteOffset": 10248,
      "componentType": 5126,
      "count": 200,
      "max": [
        0.89716202020645142,
        -0.50288999080657959,
        0.66824799776077271
      ],
      "min": [
        -0.89775800704956055,
        -0.75192201137542725,
        -0.058498900383710861
      ],
      "type": "VEC3"
    },
    {
      "bufferView": 2,
      "byteOffset": 12648,
      "componentType": 5126,
      "count": 200,
      "max": [
        0.99999690055847168,
        1,
        1
      ],
      "min": [
        -0.99998778104782104,
        -1,
        -0.99999934434890747
      ],
      "type": "VEC3"
    },
    {
      "bufferView": 3,
      "byteOffset": 6832,
      "componentType": 5126,
      "count": 200,
      "max": [
        0.81209719181060791,
        0.99996119737625122,
        0.99987685680389404,
        1
      ],
      "min": [
        -0.80455982685089111,
        -0.99998778104782104,
        -0.9999198317527771,
        1
      ],
      "type": "VEC4"
    },
    {
      "bufferView": 1,
      "byteOffset": 3416,
      "componentType": 5126,
      "count": 200,
      "max": [
        0.23802000284194946,
        0.74049597978591919
      ],
      "min": [
        0.0019529999699443579,
        0.33938199281692505
      ],
      "type": "VEC2"
    },
    {
      "bufferView": 0,
      "byteOffset": 6912,
      "componentType": 5125,
      "count": 474,
      "max": [
        199
      ],
      "min": [
        0
      ],
      "type": "SCALAR"
    },
    {
      "bufferView": 2,
      "byteOffset": 15048,
      "componentType": 5126,
      "count": 537,
      "max": [
        0.54514002799987793,
        0.69306600093841553,
        0.7697790265083313
      ],
      "min": [
        -0.94514799118041992,
        -0.48251700401306152,
        0.62706297636032104
      ],
      "type": "VEC3"
    },
    {
      "bufferView": 2,
      "byteOffset": 21492,
      "componentType": 5126,
      "count": 537,
      "max": [
        1,
        1,
        1
      ],
      "min": [
        -1,
        -1,
        -0.010619004257023335
      ],
      "type": "VEC3"
    },
    {
      "bufferView": 3,
      "byteOffset": 10032,
      "componentType": 5126,
      "count": 537,
      "max": [
        1,
        0.9998708963394165,
        0.99983543157577515,
        1
      ],
      "min": [
        -0.99893683195114136,
        -0.99988347291946411,
        -0.99997705221176147,
        -1
      ],
      "type": "VEC4"
    },
    {
      "bufferView": 1,
      "byteOffset": 5016,
      "componentType": 5126,
      "count": 537,
      "max": [
        0.99799901247024536,
        0.99804699420928955
      ],
      "min": [
        0.1719290018081665,
        0.33610200881958008
      ],
      "type": "VEC2"
    },
    {
      "bufferView": 0,
      "byteOffset": 8808,
      "componentType": 5125,
      "count": 2544,
      "max": [
        536
      ],
      "min": [
        0
      ],
      "type": "SCALAR"
    },
    {
      "bufferView": 2,
      "byteOffset": 27936,
      "componentType": 5126,
      "count": 327,
      "max": [
        0.82517802715301514,
        0.54687398672103882,
        0.86781597137451172
      ],
      "min": [
        0.66979598999023438,
        0.39149200916290283,
        0.63286799192428589
      ],
      "type": "VEC3"
    },
    {
      "bufferView": 2,
      "byteOffset": 31860,
      "componentType": 5126,
      "count": 327,
      "max": [
        1,
        1,
        1
      ],
      "min": [
        -1,
        -1,
        0
      ],
      "type": "VEC3"
    },
    {
      "bufferView": 3,
      "byteOffset": 18624,
      "componentType": 5126,
      "count": 327,
      "max": [
        0.99868077039718628,
        0.99995136260986328,
        0.99925810098648071,
        1
      ],
      "min": [
        -0.98554491996765137,
        -0.99604308605194092,
        -0.99925762414932251,
        1
      ],
      "type": "VEC4"
    },
    {
      "bufferView": 1,
      "byteOffset": 9312,
      "componentType": 5126,
      "count": 327,
      "max": [
        0.75423902273178101,
        0.14657400548458099
      ],
      "min": [
        0.3147830069065094,
        0.051837000995874405
      ],
      "type": "VEC2"
    },
    {
      "bufferView": 0,
      "byteOffset": 18984,
      "componentType": 5125,
      "count": 1458,
      "max": [
        326
      ],
      "min": [
        0
      ],
      "type": "SCALAR"
    },
    {
      "bufferView": 2,
      "byteOffset": 35784,
      "componentType": 5126,
      "count": 306,
      "max": [
        0.95127701759338379,
        0.69984298944473267,
        0.75622302293777466
      ],
      "min": [
        0.54299700260162354,
        -0.49185699224472046,
        0.71684598922729492
      ],
      "type": "VEC3"
    },
    {
      "bufferView": 2,
      "byteOffset": 39456,
      "componentType": 5126,
      "count": 306,
      "max": [
        0.69384664297103882,
        0.97893399000167847,
        0.99839121103286743
      ],
      "min": [
        -0.6073729395866394,
        -0.97893434762954712,
        0.20376099646091461
      ],
      "type": "VEC3"
    },
    {
      "bufferView": 3,
      "byteOffset": 23856,
      "componentType": 5126,
      "count": 306,
      "max": [
        0.99992483854293823,
        0.36231634020805359,
        0.60874158143997192,
        1
      ],
      "min": [
        0.71833062171936035,
        -0.35078072547912598,
        -0.69520646333694458,
        1
      ],
      "type": "VEC4"
    },
    {
      "bufferView": 1,
      "byteOffset": 11928,
      "componentType": 5126,
      "count": 306,
      "max": [
        0.9529070258140564,
        0.35009101033210754
      ],
      "min": [
        0.87170398235321045,
        0.08556000143289566
      ],
      "type": "VEC2"
    },
    {
      "bufferView": 0,
      "byteOffset": 24816,
      "componentType": 5125,
      "count": 1086,
      "max": [
        305
      ],
      "min": [
        0
      ],
      "type": "SCALAR"
    },
    {
      "bufferView": 2,
      "byteOffset": 43128,
      "componentType": 5126,
      "count": 208,
      "max": [
        0.99204802513122559,
        0.74088001251220703,
        0.7817389965057373
      ],
      "min": [
        -0.99183499813079834,
        -0.59997498989105225,
        0.66683000326156616
      ],
      "type": "VEC3"
    },
    {
      "bufferView": 2,
      "byteOffset": 45624,
      "componentType": 5126,
      "count": 208,
      "max": [
        0.99999463558197021,
        1,
        0.99999326467514038
      ],
      "min": [
        -0.99999463558197021,
        -1,
        -0.005940999835729599
      ],
      "type": "VEC3"
    },
    {
      "bufferView": 3,
      "byteOffset": 28752,
      "componentType": 5126,
      "count": 208,
      "max": [
        0.99997091293334961,
        0.70524418354034424,
        0.99999219179153442,
        1
      ],
      "min": [
        1.4224084225133993e-05,
        -0.70493018627166748,
        -0.99999195337295532,
        1
      ],
      "type": "VEC4"
    },
    {
      "bufferView": 1,
      "byteOffset": 14376,
      "componentType": 5126,
      "count": 208,
      "max": [
        0.99804699420928955,
        0.97537201642990112
      ],
      "min": [
        0.0019529999699443579,
        0.0019529999699443579
      ],
      "type": "VEC2"
    },
    {
      "bufferView": 0,
      "byteOffset": 29160,
      "componentType": 5125,
      "count": 924,
      "max": [
        207
      ],
      "min": [
        0
      ],
      "type": "SCALAR"
    },
    {
      "bufferView": 2,
      "byteOffset": 48120,
      "componentType": 5126,
      "count": 725,
      "max": [
        1,
        0.75192201137542725,
        0.70548498630523682
      ],
      "min": [
        -1,
        -0.609080970287323,
        -0.86781597137451172
      ],
      "type": "VEC3"
    },
    {
      "bufferView": 2,
      "byteOffset": 56820,
      "componentType": 5126,
      "count": 725,
      "max": [
        0.99999886751174927,
        0.99999934434890747,
        1
      ],
      "min": [
        -0.99999886751174927,
        -0.99999934434890747,
        -1
      ],
      "type": "VEC3"
    },
    {
      "bufferView": 3,
      "byteOffset": 32080,
      "componentType": 5126,
      "count": 725,
      "max": [
        0.99996459484100342,
        0.99999767541885376,
        0.99788159132003784,
        1
      ],
      "min": [
        -0.99997735023498535,
        -0.99999940395355225,
        -0.99484753608703613,
        -1
      ],
      "type": "VEC4"
    },
    {
      "bufferView": 1,
      "byteOffset": 16040,
      "componentType": 5126,
      "count": 725,
      "max": [
        0.95031100511550903,
        0.86707001924514771
      ],
      "min": [
        0.0019529999699443579,
        0.0019529999699443579
      ],
      "type": "VEC2"
    },
    {
      "bufferView": 0,
      "byteOffset": 32856,
      "componentType": 5125,
      "count": 2610,
      "max": [
        724
      ],
      "min": [
        0
      ],
      "type": "SCALAR"
    }
  ],
  "asset": {
    "extras": {
      "author": "danny_p3d (https://sketchfab.com/dannyp_3d)",
      "license": "CC-BY-4.0 (http://creativecommons.org/licenses/by/4.0/)",
      "source": "https://sketchfab.com/models/3f7bfa2b8d134c4ca2acd395e307f9e6",
      "title": "Old TV"
    },
    "generator": "Sketchfab-4.23.2",
    "version": "2.0"
  },
  "bufferViews": [
    {
      "buffer": 0,
      "byteLength": 43296,
      "byteOffset": 0,
      "name": "floatBufferViews",
      "target": 34963
    },
    {
      "buffer": 0,
      "byteLength": 21840,
      "byteOffset": 43296,
      "byteStride": 8,
      "name": "floatBufferViews",
      "target": 34962
    },
    {
      "buffer": 0,
      "byteLength": 65520,
      "byteOffset": 65136,
      "byteStride": 12,
      "name": "floatBufferViews",
      "target": 34962
    },
    {
      "buffer": 0,
      "byteLength": 43680,
      "byteOffset": 130656,
      "byteStride": 16,
      "name": "floatBufferViews",
      "target": 34962
    }
  ],
  "buffers": [
    {
      "byteLength": 174336,
      "uri": "scene.bin"
    }
  ],
  "images": [
    {
      "uri": "textures/rsMaterial3SG_normal.png"
    },
    {
      "uri": "textures/rsMaterial3SG_metallicRoughness.png"
    },
    {
      "uri": "textures/rsMaterial3SG_baseColor.jpeg"
    }
  ],
  "materials": [
    {
      "doubleSided": true,
      "emissiveFactor": [
        0,
        0,
        0
      ],
      "name": "rsMaterial3SG",
      "normalTexture": {
        "index": 0,
        "scale": 1,
        "texCoord": 0
      },
      "pbrMetallicRoughness": {
        "baseColorFactor": [
          1,
          1,
          1,
          1
        ],
        "baseColorTexture": {
          "index": 2,
          "texCoord": 0
        },
        "metallicFactor": 1,
        "metallicRoughnessTexture": {
          "index": 1,
          "texCoord": 0
        },
        "roughnessFactor": 1
      }
    }
  ],
  "meshes": [
    {
      "name": "defaultMaterial",
      "primitives": [
        {
          "attributes": {
            "NORMAL": 1,
            "POSITION": 0,
            "TANGENT": 2,
            "TEXCOORD_0": 3
          },
          "indices": 4,
          "material": 0,
          "mode": 4
        }
      ]
    },
    {
      "name": "defaultMaterial",
      "primitives": [
        {
          "attributes": {
            "NORMAL": 6,
            "POSITION": 5,
            "TANGENT": 7,
            "TEXCOORD_0": 8
          },
          "indices": 9,
          "material": 0,
          "mode": 4
        }
      ]
    },
    {
      "name": "defaultMaterial",
      "primitives": [
        {
          "attributes": {
            "NORMAL": 11,
            "POSITION": 10,
            "TANGENT": 12,
            "TEXCOORD_0": 13
          },
          "indices": 14,
          "material": 0,
          "mode": 4
        }
      ]
    },
    {
      "name": "defaultMaterial",
      "primitives": [
        {
          "attributes": {
            "NORMAL": 16,
            "POSITION": 15,
            "TANGENT": 17,
            "TEXCOORD_0": 18
          },
          "indices": 19,
          "material": 0,
          "mode": 4
        }
      ]
    },
    {
      "name": "defaultMaterial",
      "primitives": [
        {
          "attributes": {
            "NORMAL": 21,
            "POSITION": 20,
            "TANGENT": 22,
            "TEXCOORD_0": 23
          },
          "indices": 24,
          "material": 0,
          "mode": 4
        }
      ]
    },
    {
      "name": "defaultMaterial",
      "primitives": [
        {
          "attributes": {
            "NORMAL": 26,
            "POSITION": 25,
            "TANGENT": 27,
            "TEXCOORD_0": 28
          },
          "indices": 29,
          "material": 0,
          "mode": 4
        }
      ]
    },
    {
      "name": "defaultMaterial",
      "primitives": [
        {
          "attributes": {
            "NORMAL": 31,
            "POSITION": 30,
            "TANGENT": 32,
            "TEXCOORD_0": 33
          },
          "indices": 34,
          "material": 0,
          "mode": 4
        }
      ]
    },
    {
      "name": "defaultMaterial",
      "primitives": [
        {
          "attributes": {
            "NORMAL": 36,
            "POSITION": 35,
            "TANGENT": 37,
            "TEXCOORD_0": 38
          },
          "indices": 39,
          "material": 0,
          "mode": 4
        }
      ]
    }
  ],
  "nodes": [
    {
      "children": [
        1
      ],
      "name": "RootNode (gltf orientation matrix)",
      "rotation": [
        -0.70710678118654746,
        -0,
        -0,
        0.70710678118654757
      ]
    },
    {
      "children": [
        2
      ],
      "name": "RootNode (model correction matrix)"
    },
    {
      "children": [
        3,
        5,
        7,
        9,
        11,
        13,
        15,
        17
      ],
      "matrix": [
        1,
        0,
        0,
        0,
        0,
        -4.3711390063094768e-08,
        0.999999999999999,
        0,
        0,
        -0.999999999999999,
        -4.3711390063094768e-08,
        0,
        0,
        0,
        0,
        1
      ],
      "name": "Collada visual scene group"
    },
    {
      "children": [
        4
      ],
      "name": "g"
    },
    {
      "mesh": 0,
      "name": "defaultMaterial"
    },
    {
      "children": [
        6
      ],
      "name": "g"
    },
    {
      "mesh": 1,
      "name": "defaultMaterial"
    },
    {
      "children": [
        8
      ],
      "name": "g"
    },
    {
      "mesh": 2,
      "name": "defaultMaterial"
    },
    {
      "children": [
        10
      ],
      "name": "g"
    },
    {
      "mesh": 3,
      "name": "defaultMaterial"
    },
    {
      "children": [
        12
      ],
      "name": "g"
    },
    {
      "mesh": 4,
      "name": "defaultMaterial"
    },
    {
      "children": [
        14
      ],
      "name": "g"
    },
    {
      "mesh": 5,
      "name": "defaultMaterial"
    },
    {
      "children": [
        16
      ],
      "name": "g"
    },
    {
      "mesh": 6,
      "name": "defaultMaterial"
    },
    {
      "children": [
        18
      ],
      "name": "g"
    },
    {
      "mesh": 7,
      "name": "defaultMaterial"
    }
  ],
  "samplers": [
    {
      "magFilter": 9729,
      "minFilter": 9987,
      "wrapS": 10497,
      "wrapT": 10497
    }
  ],
  "scene": 0,
  "scenes": [
    {
      "name": "OSG_Scene",
      "nodes": [
        0
      ]
    }
  ],
  "textures": [
    {
      "sampler": 0,
      "source": 0
    },
    {
      "sampler": 0,
      "source": 1
    },
    {
      "sampler": 0,
      "source": 2
    }
  ]
}

